<svg xmlns="http://www.w3.org/2000/svg" width="1280" height="720" viewBox="0 0 1280 720"><rect width="1280" height="720" fill="#06080a"/><line x1="0" y1="0" x2="0" y2="720" stroke="rgba(78,247,168,.06)"/><line x1="44" y1="0" x2="44" y2="720" stroke="rgba(78,247,168,.06)"/><line x1="88" y1="0" x2="88" y2="720" stroke="rgba(78,247,168,.06)"/><line x1="132" y1="0" x2="132" y2="720" stroke="rgba(78,247,168,.06)"/><line x1="176" y1="0" x2="176" y2="720" stroke="rgba(78,247,168,.06)"/><line x1="220" y1="0" x2="220" y2="720" stroke="rgba(78,247,168,.06)"/><line x1="264" y1="0" x2="264" y2="720" stroke="rgba(78,247,168,.06)"/><line x1="308" y1="0" x2="308" y2="720" stroke="rgba(78,247,168,.06)"/><line x1="352" y1="0" x2="352" y2="720" stroke="rgba(78,247,168,.06)"/><line x1="396" y1="0" x2="396" y2="720" stroke="rgba(78,247,168,.06)"/><line x1="440" y1="0" x2="440" y2="720" stroke="rgba(78,247,168,.06)"/><line x1="484" y1="0" x2="484" y2="720" stroke="rgba(78,247,168,.06)"/><line x1="528" y1="0" x2="528" y2="720" stroke="rgba(78,247,168,.06)"/><line x1="572" y1="0" x2="572" y2="720" stroke="rgba(78,247,168,.06)"/><line x1="616" y1="0" x2="616" y2="720" stroke="rgba(78,247,168,.06)"/><line x1="660" y1="0" x2="660" y2="720" stroke="rgba(78,247,168,.06)"/><line x1="704" y1="0" x2="704" y2="720" stroke="rgba(78,247,168,.06)"/><line x1="748" y1="0" x2="748" y2="720" stroke="rgba(78,247,168,.06)"/><line x1="792" y1="0" x2="792" y2="720" stroke="rgba(78,247,168,.06)"/><line x1="836" y1="0" x2="836" y2="720" stroke="rgba(78,247,168,.06)"/><line x1="880" y1="0" x2="880" y2="720" stroke="rgba(78,247,168,.06)"/><line x1="924" y1="0" x2="924" y2="720" stroke="rgba(78,247,168,.06)"/><line x1="968" y1="0" x2="968" y2="720" stroke="rgba(78,247,168,.06)"/><line x1="1012" y1="0" x2="1012" y2="720" stroke="rgba(78,247,168,.06)"/><line x1="1056" y1="0" x2="1056" y2="720" stroke="rgba(78,247,168,.06)"/><line x1="1100" y1="0" x2="1100" y2="720" stroke="rgba(78,247,168,.06)"/><line x1="1144" y1="0" x2="1144" y2="720" stroke="rgba(78,247,168,.06)"/><line x1="1188" y1="0" x2="1188" y2="720" stroke="rgba(78,247,168,.06)"/><line x1="1232" y1="0" x2="1232" y2="720" stroke="rgba(78,247,168,.06)"/><line x1="1276" y1="0" x2="1276" y2="720" stroke="rgba(78,247,168,.06)"/><line x1="0" y1="0" x2="1280" y2="0" stroke="rgba(78,247,168,.06)"/><line x1="0" y1="44" x2="1280" y2="44" stroke="rgba(78,247,168,.06)"/><line x1="0" y1="88" x2="1280" y2="88" stroke="rgba(78,247,168,.06)"/><line x1="0" y1="132" x2="1280" y2="132" stroke="rgba(78,247,168,.06)"/><line x1="0" y1="176" x2="1280" y2="176" stroke="rgba(78,247,168,.06)"/><line x1="0" y1="220" x2="1280" y2="220" stroke="rgba(78,247,168,.06)"/><line x1="0" y1="264" x2="1280" y2="264" stroke="rgba(78,247,168,.06)"/><line x1="0" y1="308" x2="1280" y2="308" stroke="rgba(78,247,168,.06)"/><line x1="0" y1="352" x2="1280" y2="352" stroke="rgba(78,247,168,.06)"/><line x1="0" y1="396" x2="1280" y2="396" stroke="rgba(78,247,168,.06)"/><line x1="0" y1="440" x2="1280" y2="440" stroke="rgba(78,247,168,.06)"/><line x1="0" y1="484" x2="1280" y2="484" stroke="rgba(78,247,168,.06)"/><line x1="0" y1="528" x2="1280" y2="528" stroke="rgba(78,247,168,.06)"/><line x1="0" y1="572" x2="1280" y2="572" stroke="rgba(78,247,168,.06)"/><line x1="0" y1="616" x2="1280" y2="616" stroke="rgba(78,247,168,.06)"/><line x1="0" y1="660" x2="1280" y2="660" stroke="rgba(78,247,168,.06)"/><line x1="0" y1="704" x2="1280" y2="704" stroke="rgba(78,247,168,.06)"/><rect x="0" y="0" width="1280" height="44" fill="#0a0f11"/><line x1="0" y1="44" x2="1280" y2="44" stroke="rgba(120,150,138,.16)"/><text x="16" y="29" fill="#4ef7a8" font-family="monospace" font-size="17" font-weight="700" text-anchor="start">OUTCRY</text><text x="120" y="28" fill="#cfe0d7" font-family="monospace" font-size="14" font-weight="400" text-anchor="start">BTC_EUR</text><text x="210" y="28" fill="#4ef7a8" font-family="monospace" font-size="14" font-weight="400" text-anchor="start">last 93.20</text><text x="360" y="28" fill="#6f8279" font-family="monospace" font-size="12" font-weight="400" text-anchor="start">μ 100.14   spread 200.0bp</text><text x="1264" y="28" fill="#6f8279" font-family="monospace" font-size="12" font-weight="400" text-anchor="end">pure-PostgreSQL exchange · WASM terminal</text><rect x="16" y="60" width="286" height="632" fill="#0a0e10"/><line x1="302" y1="60" x2="302" y2="692" stroke="rgba(120,150,138,.16)"/><text x="26" y="78" fill="#6f8279" font-family="monospace" font-size="11" font-weight="600" text-anchor="start">ORDER BOOK · L2</text><rect x="22" y="83" width="274" height="13" fill="#ff5d6c" opacity=".13"/><text x="26" y="94" fill="#ff5d6c" font-family="monospace" font-size="12" font-weight="400" text-anchor="start">108.00</text><text x="294" y="94" fill="#6f8279" font-family="monospace" font-size="11" font-weight="400" text-anchor="end">2.900</text><rect x="75.6891891891892" y="100" width="220.3108108108108" height="13" fill="#ff5d6c" opacity=".13"/><text x="26" y="111" fill="#ff5d6c" font-family="monospace" font-size="12" font-weight="400" text-anchor="start">107.00</text><text x="294" y="111" fill="#6f8279" font-family="monospace" font-size="11" font-weight="400" text-anchor="end">2.600</text><rect x="123.82432432432432" y="117" width="172.17567567567568" height="13" fill="#ff5d6c" opacity=".13"/><text x="26" y="128" fill="#ff5d6c" font-family="monospace" font-size="12" font-weight="400" text-anchor="start">106.00</text><text x="294" y="128" fill="#6f8279" font-family="monospace" font-size="11" font-weight="400" text-anchor="end">2.300</text><rect x="166.40540540540542" y="134" width="129.59459459459458" height="13" fill="#ff5d6c" opacity=".13"/><text x="26" y="145" fill="#ff5d6c" font-family="monospace" font-size="12" font-weight="400" text-anchor="start">105.00</text><text x="294" y="145" fill="#6f8279" font-family="monospace" font-size="11" font-weight="400" text-anchor="end">2.000</text><rect x="203.43243243243245" y="151" width="92.56756756756756" height="13" fill="#ff5d6c" opacity=".13"/><text x="26" y="162" fill="#ff5d6c" font-family="monospace" font-size="12" font-weight="400" text-anchor="start">104.00</text><text x="294" y="162" fill="#6f8279" font-family="monospace" font-size="11" font-weight="400" text-anchor="end">1.700</text><rect x="234.90540540540542" y="168" width="61.09459459459459" height="13" fill="#ff5d6c" opacity=".13"/><text x="26" y="179" fill="#ff5d6c" font-family="monospace" font-size="12" font-weight="400" text-anchor="start">103.00</text><text x="294" y="179" fill="#6f8279" font-family="monospace" font-size="11" font-weight="400" text-anchor="end">1.400</text><rect x="260.8243243243243" y="185" width="35.17567567567568" height="13" fill="#ff5d6c" opacity=".13"/><text x="26" y="196" fill="#ff5d6c" font-family="monospace" font-size="12" font-weight="400" text-anchor="start">102.00</text><text x="294" y="196" fill="#6f8279" font-family="monospace" font-size="11" font-weight="400" text-anchor="end">1.300</text><rect x="284.8918918918919" y="202" width="11.108108108108107" height="13" fill="#ff5d6c" opacity=".13"/><text x="26" y="213" fill="#ff5d6c" font-family="monospace" font-size="12" font-weight="400" text-anchor="start">101.00</text><text x="294" y="213" fill="#6f8279" font-family="monospace" font-size="11" font-weight="400" text-anchor="end">0.600</text><line x1="16" y1="222" x2="302" y2="222" stroke="rgba(120,150,138,.16)"/><text x="26" y="238" fill="#4ef7a8" font-family="monospace" font-size="13" font-weight="600" text-anchor="start">mid 100.00</text><rect x="281.18918918918916" y="241" width="14.810810810810812" height="13" fill="#4ef7a8" opacity=".13"/><text x="26" y="252" fill="#4ef7a8" font-family="monospace" font-size="12" font-weight="400" text-anchor="start">99.00</text><text x="294" y="252" fill="#6f8279" font-family="monospace" font-size="11" font-weight="400" text-anchor="end">0.800</text><rect x="260.8243243243243" y="258" width="35.17567567567568" height="13" fill="#4ef7a8" opacity=".13"/><text x="26" y="269" fill="#4ef7a8" font-family="monospace" font-size="12" font-weight="400" text-anchor="start">98.00</text><text x="294" y="269" fill="#6f8279" font-family="monospace" font-size="11" font-weight="400" text-anchor="end">1.100</text><rect x="234.90540540540542" y="275" width="61.09459459459459" height="13" fill="#4ef7a8" opacity=".13"/><text x="26" y="286" fill="#4ef7a8" font-family="monospace" font-size="12" font-weight="400" text-anchor="start">97.00</text><text x="294" y="286" fill="#6f8279" font-family="monospace" font-size="11" font-weight="400" text-anchor="end">1.400</text><rect x="203.43243243243245" y="292" width="92.56756756756756" height="13" fill="#4ef7a8" opacity=".13"/><text x="26" y="303" fill="#4ef7a8" font-family="monospace" font-size="12" font-weight="400" text-anchor="start">96.00</text><text x="294" y="303" fill="#6f8279" font-family="monospace" font-size="11" font-weight="400" text-anchor="end">1.700</text><rect x="166.40540540540542" y="309" width="129.59459459459458" height="13" fill="#4ef7a8" opacity=".13"/><text x="26" y="320" fill="#4ef7a8" font-family="monospace" font-size="12" font-weight="400" text-anchor="start">95.00</text><text x="294" y="320" fill="#6f8279" font-family="monospace" font-size="11" font-weight="400" text-anchor="end">2.000</text><rect x="123.82432432432432" y="326" width="172.17567567567568" height="13" fill="#4ef7a8" opacity=".13"/><text x="26" y="337" fill="#4ef7a8" font-family="monospace" font-size="12" font-weight="400" text-anchor="start">94.00</text><text x="294" y="337" fill="#6f8279" font-family="monospace" font-size="11" font-weight="400" text-anchor="end">2.300</text><rect x="75.6891891891892" y="343" width="220.3108108108108" height="13" fill="#4ef7a8" opacity=".13"/><text x="26" y="354" fill="#4ef7a8" font-family="monospace" font-size="12" font-weight="400" text-anchor="start">93.00</text><text x="294" y="354" fill="#6f8279" font-family="monospace" font-size="11" font-weight="400" text-anchor="end">2.600</text><rect x="22" y="360" width="274" height="13" fill="#4ef7a8" opacity=".13"/><text x="26" y="371" fill="#4ef7a8" font-family="monospace" font-size="12" font-weight="400" text-anchor="start">92.00</text><text x="294" y="371" fill="#6f8279" font-family="monospace" font-size="11" font-weight="400" text-anchor="end">2.900</text><rect x="320" y="60" width="960" height="392" fill="#0a0e10"/><line x1="320" y1="382" x2="1216" y2="382" stroke="rgba(120,150,138,.16)" stroke-dasharray="2 4"/><text x="1222" y="385" fill="#3f4f48" font-family="monospace" font-size="11" font-weight="400" text-anchor="start">92.41</text><line x1="320" y1="301.4999999999999" x2="1216" y2="301.4999999999999" stroke="rgba(120,150,138,.16)" stroke-dasharray="2 4"/><text x="1222" y="304.4999999999999" fill="#3f4f48" font-family="monospace" font-size="11" font-weight="400" text-anchor="start">94.68</text><line x1="320" y1="220.99999999999974" x2="1216" y2="220.99999999999974" stroke="rgba(120,150,138,.16)" stroke-dasharray="2 4"/><text x="1222" y="223.99999999999974" fill="#3f4f48" font-family="monospace" font-size="11" font-weight="400" text-anchor="start">96.95</text><line x1="320" y1="140.50000000000014" x2="1216" y2="140.50000000000014" stroke="rgba(120,150,138,.16)" stroke-dasharray="2 4"/><text x="1222" y="143.50000000000014" fill="#3f4f48" font-family="monospace" font-size="11" font-weight="400" text-anchor="start">99.22</text><line x1="320" y1="60" x2="1216" y2="60" stroke="rgba(120,150,138,.16)" stroke-dasharray="2 4"/><text x="1222" y="63" fill="#3f4f48" font-family="monospace" font-size="11" font-weight="400" text-anchor="start">101.49</text><path d="M323.9 275.0 L336.3 271.4 L348.7 266.9 L361.2 259.4 L373.6 254.3 L386.1 253.0 L398.5 254.2 L411.0 254.9 L423.4 254.1 L435.9 254.2 L448.3 254.0 L460.7 257.1 L473.2 253.8 L485.6 252.8 L498.1 256.5 L510.5 256.3 L523.0 255.3 L535.4 255.2 L547.9 256.0 L560.3 255.7 L572.7 255.5 L585.2 256.7 L597.6 259.6 L610.1 266.3 L622.5 276.9 L635.0 278.7 L647.4 280.0 L659.9 280.6 L672.3 283.6 L684.7 283.6 L697.2 281.7 L709.6 277.8 L722.1 275.8 L734.5 275.5 L747.0 270.4 L759.4 261.3 L771.9 256.8 L784.3 252.4 L796.7 251.3 L809.2 248.8 L821.6 248.1 L834.1 248.4 L846.5 248.8 L859.0 245.7 L871.4 247.1 L883.9 252.3 L896.3 254.1 L908.7 254.8 L921.2 254.8 L933.6 254.0 L946.1 251.8 L958.5 247.0 L971.0 247.4 L983.4 245.7 L995.9 248.2 L1008.3 254.9 L1020.7 259.6 L1033.2 262.4 L1045.6 264.4 L1058.1 266.7 L1070.5 268.2 L1083.0 267.2 L1095.4 267.9 L1107.9 274.2 L1120.3 274.7 L1132.7 275.5 L1145.2 275.3 L1157.6 278.8 L1170.1 279.5 L1182.5 279.6 L1195.0 279.5 L1207.4 278.9 L1207.4 350.9 L1195.0 350.0 L1182.5 349.5 L1170.1 349.3 L1157.6 348.6 L1145.2 349.3 L1132.7 346.4 L1120.3 342.0 L1107.9 341.7 L1095.4 344.5 L1083.0 344.1 L1070.5 344.5 L1058.1 344.0 L1045.6 345.0 L1033.2 345.1 L1020.7 346.4 L1008.3 347.8 L995.9 349.3 L983.4 347.3 L971.0 342.4 L958.5 339.5 L946.1 328.1 L933.6 322.0 L921.2 320.4 L908.7 320.4 L896.3 324.3 L883.9 327.9 L871.4 339.1 L859.0 343.6 L846.5 346.3 L834.1 349.9 L821.6 349.2 L809.2 349.6 L796.7 349.6 L784.3 349.6 L771.9 349.0 L759.4 347.3 L747.0 345.3 L734.5 345.6 L722.1 348.0 L709.6 352.1 L697.2 351.0 L684.7 350.1 L672.3 350.1 L659.9 351.2 L647.4 351.0 L635.0 349.8 L622.5 344.9 L610.1 347.7 L597.6 348.2 L585.2 345.5 L572.7 345.2 L560.3 345.7 L547.9 346.5 L535.4 346.4 L523.0 347.3 L510.5 348.2 L498.1 346.1 L485.6 343.6 L473.2 339.3 L460.7 333.8 L448.3 339.8 L435.9 341.2 L423.4 341.7 L411.0 342.2 L398.5 344.9 L386.1 349.7 L373.6 353.7 L361.2 359.2 L348.7 359.1 L336.3 362.3 L323.9 364.8 Z" fill="#9b8cff" opacity=".07"/><rect x="320.0" y="445.8" width="7.7" height="6.2" fill="#4ef7a8" opacity=".30"/><line x1="323.9" y1="308.9" x2="323.9" y2="308.9" stroke="#4ef7a8"/><rect x="320.0" y="308.9" width="7.7" height="1.0" fill="#4ef7a8"/><rect x="332.4" y="399.6" width="7.7" height="52.4" fill="#4ef7a8" opacity=".30"/><line x1="336.3" y1="285.8" x2="336.3" y2="285.8" stroke="#4ef7a8"/><rect x="332.4" y="285.8" width="7.7" height="1.0" fill="#4ef7a8"/><rect x="344.9" y="445.1" width="7.7" height="6.9" fill="#4ef7a8" opacity=".30"/><line x1="348.7" y1="274.5" x2="348.7" y2="274.5" stroke="#4ef7a8"/><rect x="344.9" y="274.5" width="7.7" height="1.0" fill="#4ef7a8"/><rect x="357.3" y="423.1" width="7.7" height="28.9" fill="#4ef7a8" opacity=".30"/><line x1="361.2" y1="261.7" x2="361.2" y2="261.7" stroke="#4ef7a8"/><rect x="357.3" y="261.7" width="7.7" height="1.0" fill="#4ef7a8"/><rect x="369.8" y="431.5" width="7.7" height="20.5" fill="#4ef7a8" opacity=".30"/><line x1="373.6" y1="253.9" x2="373.6" y2="253.9" stroke="#4ef7a8"/><rect x="369.8" y="253.9" width="7.7" height="1.0" fill="#4ef7a8"/><rect x="382.2" y="437.3" width="7.7" height="14.7" fill="#4ef7a8" opacity=".30"/><line x1="386.1" y1="283.0" x2="386.1" y2="283.0" stroke="#4ef7a8"/><rect x="382.2" y="283.0" width="7.7" height="1.0" fill="#4ef7a8"/><rect x="394.7" y="407.1" width="7.7" height="44.9" fill="#4ef7a8" opacity=".30"/><line x1="398.5" y1="302.2" x2="398.5" y2="302.2" stroke="#4ef7a8"/><rect x="394.7" y="302.2" width="7.7" height="1.0" fill="#4ef7a8"/><rect x="407.1" y="434.8" width="7.7" height="17.2" fill="#4ef7a8" opacity=".30"/><line x1="411.0" y1="307.8" x2="411.0" y2="307.8" stroke="#4ef7a8"/><rect x="407.1" y="307.8" width="7.7" height="1.0" fill="#4ef7a8"/><rect x="419.6" y="393.2" width="7.7" height="58.8" fill="#4ef7a8" opacity=".30"/><line x1="423.4" y1="288.7" x2="423.4" y2="288.7" stroke="#4ef7a8"/><rect x="419.6" y="288.7" width="7.7" height="1.0" fill="#4ef7a8"/><rect x="432.0" y="409.6" width="7.7" height="42.4" fill="#4ef7a8" opacity=".30"/><line x1="435.9" y1="311.7" x2="435.9" y2="311.7" stroke="#4ef7a8"/><rect x="432.0" y="311.7" width="7.7" height="1.0" fill="#4ef7a8"/><rect x="444.4" y="422.0" width="7.7" height="30.0" fill="#4ef7a8" opacity=".30"/><line x1="448.3" y1="297.9" x2="448.3" y2="297.9" stroke="#4ef7a8"/><rect x="444.4" y="297.9" width="7.7" height="1.0" fill="#4ef7a8"/><rect x="456.9" y="400.9" width="7.7" height="51.1" fill="#4ef7a8" opacity=".30"/><line x1="460.7" y1="313.5" x2="460.7" y2="313.5" stroke="#4ef7a8"/><rect x="456.9" y="313.5" width="7.7" height="1.0" fill="#4ef7a8"/><rect x="469.3" y="430.2" width="7.7" height="21.8" fill="#4ef7a8" opacity=".30"/><line x1="473.2" y1="347.2" x2="473.2" y2="347.2" stroke="#4ef7a8"/><rect x="469.3" y="347.2" width="7.7" height="1.0" fill="#4ef7a8"/><rect x="481.8" y="435.0" width="7.7" height="17.0" fill="#4ef7a8" opacity=".30"/><line x1="485.6" y1="331.6" x2="485.6" y2="331.6" stroke="#4ef7a8"/><rect x="481.8" y="331.6" width="7.7" height="1.0" fill="#4ef7a8"/><rect x="494.2" y="421.1" width="7.7" height="30.9" fill="#4ef7a8" opacity=".30"/><line x1="498.1" y1="328.4" x2="498.1" y2="328.4" stroke="#4ef7a8"/><rect x="494.2" y="328.4" width="7.7" height="1.0" fill="#4ef7a8"/><rect x="506.7" y="426.8" width="7.7" height="25.2" fill="#4ef7a8" opacity=".30"/><line x1="510.5" y1="325.6" x2="510.5" y2="325.6" stroke="#4ef7a8"/><rect x="506.7" y="325.6" width="7.7" height="1.0" fill="#4ef7a8"/><rect x="519.1" y="400.0" width="7.7" height="52.0" fill="#4ef7a8" opacity=".30"/><line x1="523.0" y1="291.9" x2="523.0" y2="291.9" stroke="#4ef7a8"/><rect x="519.1" y="291.9" width="7.7" height="1.0" fill="#4ef7a8"/><rect x="531.6" y="413.6" width="7.7" height="38.4" fill="#4ef7a8" opacity=".30"/><line x1="535.4" y1="305.7" x2="535.4" y2="305.7" stroke="#4ef7a8"/><rect x="531.6" y="305.7" width="7.7" height="1.0" fill="#4ef7a8"/><rect x="544.0" y="410.8" width="7.7" height="41.2" fill="#4ef7a8" opacity=".30"/><line x1="547.9" y1="294.0" x2="547.9" y2="294.0" stroke="#4ef7a8"/><rect x="544.0" y="294.0" width="7.7" height="1.0" fill="#4ef7a8"/><rect x="556.4" y="395.9" width="7.7" height="56.1" fill="#4ef7a8" opacity=".30"/><line x1="560.3" y1="299.7" x2="560.3" y2="299.7" stroke="#4ef7a8"/><rect x="556.4" y="299.7" width="7.7" height="1.0" fill="#4ef7a8"/><rect x="568.9" y="393.2" width="7.7" height="58.8" fill="#4ef7a8" opacity=".30"/><line x1="572.7" y1="301.8" x2="572.7" y2="301.8" stroke="#4ef7a8"/><rect x="568.9" y="301.8" width="7.7" height="1.0" fill="#4ef7a8"/><rect x="581.3" y="399.8" width="7.7" height="52.2" fill="#4ef7a8" opacity=".30"/><line x1="585.2" y1="301.1" x2="585.2" y2="301.1" stroke="#4ef7a8"/><rect x="581.3" y="301.1" width="7.7" height="1.0" fill="#4ef7a8"/><rect x="593.8" y="445.3" width="7.7" height="6.7" fill="#4ef7a8" opacity=".30"/><line x1="597.6" y1="329.8" x2="597.6" y2="329.8" stroke="#4ef7a8"/><rect x="593.8" y="329.8" width="7.7" height="1.0" fill="#4ef7a8"/><rect x="606.2" y="432.5" width="7.7" height="19.5" fill="#4ef7a8" opacity=".30"/><line x1="610.1" y1="324.5" x2="610.1" y2="324.5" stroke="#4ef7a8"/><rect x="606.2" y="324.5" width="7.7" height="1.0" fill="#4ef7a8"/><rect x="618.7" y="426.0" width="7.7" height="26.0" fill="#4ef7a8" opacity=".30"/><line x1="622.5" y1="332.3" x2="622.5" y2="332.3" stroke="#4ef7a8"/><rect x="618.7" y="332.3" width="7.7" height="1.0" fill="#4ef7a8"/><rect x="631.1" y="400.7" width="7.7" height="51.3" fill="#4ef7a8" opacity=".30"/><line x1="635.0" y1="350.1" x2="635.0" y2="350.1" stroke="#4ef7a8"/><rect x="631.1" y="350.1" width="7.7" height="1.0" fill="#4ef7a8"/><rect x="643.6" y="438.3" width="7.7" height="13.7" fill="#4ef7a8" opacity=".30"/><line x1="647.4" y1="326.6" x2="647.4" y2="326.6" stroke="#4ef7a8"/><rect x="643.6" y="326.6" width="7.7" height="1.0" fill="#4ef7a8"/><rect x="656.0" y="425.7" width="7.7" height="26.3" fill="#4ef7a8" opacity=".30"/><line x1="659.9" y1="316.4" x2="659.9" y2="316.4" stroke="#4ef7a8"/><rect x="656.0" y="316.4" width="7.7" height="1.0" fill="#4ef7a8"/><rect x="668.4" y="392.7" width="7.7" height="59.3" fill="#4ef7a8" opacity=".30"/><line x1="672.3" y1="307.5" x2="672.3" y2="307.5" stroke="#4ef7a8"/><rect x="668.4" y="307.5" width="7.7" height="1.0" fill="#4ef7a8"/><rect x="680.9" y="422.4" width="7.7" height="29.6" fill="#4ef7a8" opacity=".30"/><line x1="684.7" y1="311.4" x2="684.7" y2="311.4" stroke="#4ef7a8"/><rect x="680.9" y="311.4" width="7.7" height="1.0" fill="#4ef7a8"/><rect x="693.3" y="428.2" width="7.7" height="23.8" fill="#4ef7a8" opacity=".30"/><line x1="697.2" y1="288.0" x2="697.2" y2="288.0" stroke="#4ef7a8"/><rect x="693.3" y="288.0" width="7.7" height="1.0" fill="#4ef7a8"/><rect x="705.8" y="391.9" width="7.7" height="60.1" fill="#4ef7a8" opacity=".30"/><line x1="709.6" y1="285.5" x2="709.6" y2="285.5" stroke="#4ef7a8"/><rect x="705.8" y="285.5" width="7.7" height="1.0" fill="#4ef7a8"/><rect x="718.2" y="446.3" width="7.7" height="5.7" fill="#4ef7a8" opacity=".30"/><line x1="722.1" y1="286.2" x2="722.1" y2="286.2" stroke="#4ef7a8"/><rect x="718.2" y="286.2" width="7.7" height="1.0" fill="#4ef7a8"/><rect x="730.7" y="429.5" width="7.7" height="22.5" fill="#4ef7a8" opacity=".30"/><line x1="734.5" y1="304.3" x2="734.5" y2="304.3" stroke="#4ef7a8"/><rect x="730.7" y="304.3" width="7.7" height="1.0" fill="#4ef7a8"/><rect x="743.1" y="402.0" width="7.7" height="50.0" fill="#4ef7a8" opacity=".30"/><line x1="747.0" y1="274.1" x2="747.0" y2="274.1" stroke="#4ef7a8"/><rect x="743.1" y="274.1" width="7.7" height="1.0" fill="#4ef7a8"/><rect x="755.6" y="410.4" width="7.7" height="41.6" fill="#4ef7a8" opacity=".30"/><line x1="759.4" y1="255.0" x2="759.4" y2="255.0" stroke="#4ef7a8"/><rect x="755.6" y="255.0" width="7.7" height="1.0" fill="#4ef7a8"/><rect x="768.0" y="392.7" width="7.7" height="59.3" fill="#4ef7a8" opacity=".30"/><line x1="771.9" y1="264.6" x2="771.9" y2="264.6" stroke="#4ef7a8"/><rect x="768.0" y="264.6" width="7.7" height="1.0" fill="#4ef7a8"/><rect x="780.4" y="407.6" width="7.7" height="44.4" fill="#4ef7a8" opacity=".30"/><line x1="784.3" y1="267.4" x2="784.3" y2="267.4" stroke="#4ef7a8"/><rect x="780.4" y="267.4" width="7.7" height="1.0" fill="#4ef7a8"/><rect x="792.9" y="446.8" width="7.7" height="5.2" fill="#4ef7a8" opacity=".30"/><line x1="796.7" y1="283.0" x2="796.7" y2="283.0" stroke="#4ef7a8"/><rect x="792.9" y="283.0" width="7.7" height="1.0" fill="#4ef7a8"/><rect x="805.3" y="395.2" width="7.7" height="56.8" fill="#4ef7a8" opacity=".30"/><line x1="809.2" y1="274.5" x2="809.2" y2="274.5" stroke="#4ef7a8"/><rect x="805.3" y="274.5" width="7.7" height="1.0" fill="#4ef7a8"/><rect x="817.8" y="420.4" width="7.7" height="31.6" fill="#4ef7a8" opacity=".30"/><line x1="821.6" y1="291.2" x2="821.6" y2="291.2" stroke="#4ef7a8"/><rect x="817.8" y="291.2" width="7.7" height="1.0" fill="#4ef7a8"/><rect x="830.2" y="398.5" width="7.7" height="53.5" fill="#4ef7a8" opacity=".30"/><line x1="834.1" y1="310.0" x2="834.1" y2="310.0" stroke="#4ef7a8"/><rect x="830.2" y="310.0" width="7.7" height="1.0" fill="#4ef7a8"/><rect x="842.7" y="424.8" width="7.7" height="27.2" fill="#4ef7a8" opacity=".30"/><line x1="846.5" y1="298.6" x2="846.5" y2="298.6" stroke="#4ef7a8"/><rect x="842.7" y="298.6" width="7.7" height="1.0" fill="#4ef7a8"/><rect x="855.1" y="429.8" width="7.7" height="22.2" fill="#4ef7a8" opacity=".30"/><line x1="859.0" y1="266.0" x2="859.0" y2="266.0" stroke="#4ef7a8"/><rect x="855.1" y="266.0" width="7.7" height="1.0" fill="#4ef7a8"/><rect x="867.6" y="426.5" width="7.7" height="25.5" fill="#4ef7a8" opacity=".30"/><line x1="871.4" y1="301.5" x2="871.4" y2="301.5" stroke="#4ef7a8"/><rect x="867.6" y="301.5" width="7.7" height="1.0" fill="#4ef7a8"/><rect x="880.0" y="425.6" width="7.7" height="26.4" fill="#4ef7a8" opacity=".30"/><line x1="883.9" y1="290.1" x2="883.9" y2="290.1" stroke="#4ef7a8"/><rect x="880.0" y="290.1" width="7.7" height="1.0" fill="#4ef7a8"/><rect x="892.4" y="410.6" width="7.7" height="41.4" fill="#4ef7a8" opacity=".30"/><line x1="896.3" y1="308.9" x2="896.3" y2="308.9" stroke="#4ef7a8"/><rect x="892.4" y="308.9" width="7.7" height="1.0" fill="#4ef7a8"/><rect x="904.9" y="404.6" width="7.7" height="47.4" fill="#4ef7a8" opacity=".30"/><line x1="908.7" y1="285.1" x2="908.7" y2="285.1" stroke="#4ef7a8"/><rect x="904.9" y="285.1" width="7.7" height="1.0" fill="#4ef7a8"/><rect x="917.3" y="427.0" width="7.7" height="25.0" fill="#4ef7a8" opacity=".30"/><line x1="921.2" y1="307.1" x2="921.2" y2="307.1" stroke="#4ef7a8"/><rect x="917.3" y="307.1" width="7.7" height="1.0" fill="#4ef7a8"/><rect x="929.8" y="410.9" width="7.7" height="41.1" fill="#4ef7a8" opacity=".30"/><line x1="933.6" y1="318.8" x2="933.6" y2="318.8" stroke="#4ef7a8"/><rect x="929.8" y="318.8" width="7.7" height="1.0" fill="#4ef7a8"/><rect x="942.2" y="403.9" width="7.7" height="48.1" fill="#4ef7a8" opacity=".30"/><line x1="946.1" y1="327.7" x2="946.1" y2="327.7" stroke="#4ef7a8"/><rect x="942.2" y="327.7" width="7.7" height="1.0" fill="#4ef7a8"/><rect x="954.7" y="404.2" width="7.7" height="47.8" fill="#4ef7a8" opacity=".30"/><line x1="958.5" y1="350.4" x2="958.5" y2="350.4" stroke="#4ef7a8"/><rect x="954.7" y="350.4" width="7.7" height="1.0" fill="#4ef7a8"/><rect x="967.1" y="426.8" width="7.7" height="25.2" fill="#4ef7a8" opacity=".30"/><line x1="971.0" y1="319.5" x2="971.0" y2="319.5" stroke="#4ef7a8"/><rect x="967.1" y="319.5" width="7.7" height="1.0" fill="#4ef7a8"/><rect x="979.6" y="391.7" width="7.7" height="60.3" fill="#4ef7a8" opacity=".30"/><line x1="983.4" y1="336.6" x2="983.4" y2="336.6" stroke="#4ef7a8"/><rect x="979.6" y="336.6" width="7.7" height="1.0" fill="#4ef7a8"/><rect x="992.0" y="423.0" width="7.7" height="29.0" fill="#4ef7a8" opacity=".30"/><line x1="995.9" y1="319.2" x2="995.9" y2="319.2" stroke="#4ef7a8"/><rect x="992.0" y="319.2" width="7.7" height="1.0" fill="#4ef7a8"/><rect x="1004.4" y="426.4" width="7.7" height="25.6" fill="#4ef7a8" opacity=".30"/><line x1="1008.3" y1="306.8" x2="1008.3" y2="306.8" stroke="#4ef7a8"/><rect x="1004.4" y="306.8" width="7.7" height="1.0" fill="#4ef7a8"/><rect x="1016.9" y="414.6" width="7.7" height="37.4" fill="#4ef7a8" opacity=".30"/><line x1="1020.7" y1="297.9" x2="1020.7" y2="297.9" stroke="#4ef7a8"/><rect x="1016.9" y="297.9" width="7.7" height="1.0" fill="#4ef7a8"/><rect x="1029.3" y="407.0" width="7.7" height="45.0" fill="#4ef7a8" opacity=".30"/><line x1="1033.2" y1="282.3" x2="1033.2" y2="282.3" stroke="#4ef7a8"/><rect x="1029.3" y="282.3" width="7.7" height="1.0" fill="#4ef7a8"/><rect x="1041.8" y="408.6" width="7.7" height="43.4" fill="#4ef7a8" opacity=".30"/><line x1="1045.6" y1="301.8" x2="1045.6" y2="301.8" stroke="#4ef7a8"/><rect x="1041.8" y="301.8" width="7.7" height="1.0" fill="#4ef7a8"/><rect x="1054.2" y="420.6" width="7.7" height="31.4" fill="#4ef7a8" opacity=".30"/><line x1="1058.1" y1="288.0" x2="1058.1" y2="288.0" stroke="#4ef7a8"/><rect x="1054.2" y="288.0" width="7.7" height="1.0" fill="#4ef7a8"/><rect x="1066.7" y="421.0" width="7.7" height="31.0" fill="#4ef7a8" opacity=".30"/><line x1="1070.5" y1="311.0" x2="1070.5" y2="311.0" stroke="#4ef7a8"/><rect x="1066.7" y="311.0" width="7.7" height="1.0" fill="#4ef7a8"/><rect x="1079.1" y="424.7" width="7.7" height="27.3" fill="#4ef7a8" opacity=".30"/><line x1="1083.0" y1="295.4" x2="1083.0" y2="295.4" stroke="#4ef7a8"/><rect x="1079.1" y="295.4" width="7.7" height="1.0" fill="#4ef7a8"/><rect x="1091.6" y="390.4" width="7.7" height="61.6" fill="#4ef7a8" opacity=".30"/><line x1="1095.4" y1="310.0" x2="1095.4" y2="310.0" stroke="#4ef7a8"/><rect x="1091.6" y="310.0" width="7.7" height="1.0" fill="#4ef7a8"/><rect x="1104.0" y="390.0" width="7.7" height="62.0" fill="#4ef7a8" opacity=".30"/><line x1="1107.9" y1="300.4" x2="1107.9" y2="300.4" stroke="#4ef7a8"/><rect x="1104.0" y="300.4" width="7.7" height="1.0" fill="#4ef7a8"/><rect x="1116.4" y="429.2" width="7.7" height="22.8" fill="#4ef7a8" opacity=".30"/><line x1="1120.3" y1="310.7" x2="1120.3" y2="310.7" stroke="#4ef7a8"/><rect x="1116.4" y="310.7" width="7.7" height="1.0" fill="#4ef7a8"/><rect x="1128.9" y="421.7" width="7.7" height="30.3" fill="#4ef7a8" opacity=".30"/><line x1="1132.7" y1="341.2" x2="1132.7" y2="341.2" stroke="#4ef7a8"/><rect x="1128.9" y="341.2" width="7.7" height="1.0" fill="#4ef7a8"/><rect x="1141.3" y="395.9" width="7.7" height="56.1" fill="#4ef7a8" opacity=".30"/><line x1="1145.2" y1="335.9" x2="1145.2" y2="335.9" stroke="#4ef7a8"/><rect x="1141.3" y="335.9" width="7.7" height="1.0" fill="#4ef7a8"/><rect x="1153.8" y="423.3" width="7.7" height="28.7" fill="#4ef7a8" opacity=".30"/><line x1="1157.6" y1="313.2" x2="1157.6" y2="313.2" stroke="#4ef7a8"/><rect x="1153.8" y="313.2" width="7.7" height="1.0" fill="#4ef7a8"/><rect x="1166.2" y="444.3" width="7.7" height="7.7" fill="#4ef7a8" opacity=".30"/><line x1="1170.1" y1="321.7" x2="1170.1" y2="321.7" stroke="#4ef7a8"/><rect x="1166.2" y="321.7" width="7.7" height="1.0" fill="#4ef7a8"/><rect x="1178.7" y="395.8" width="7.7" height="56.2" fill="#4ef7a8" opacity=".30"/><line x1="1182.5" y1="321.3" x2="1182.5" y2="321.3" stroke="#4ef7a8"/><rect x="1178.7" y="321.3" width="7.7" height="1.0" fill="#4ef7a8"/><rect x="1191.1" y="415.7" width="7.7" height="36.3" fill="#4ef7a8" opacity=".30"/><line x1="1195.0" y1="331.3" x2="1195.0" y2="331.3" stroke="#4ef7a8"/><rect x="1191.1" y="331.3" width="7.7" height="1.0" fill="#4ef7a8"/><rect x="1203.6" y="409.0" width="7.7" height="43.0" fill="#ff5d6c" opacity=".30"/><line x1="1207.4" y1="77.3" x2="1207.4" y2="354.0" stroke="#ff5d6c"/><rect x="1203.6" y="112.7" width="7.7" height="241.2" fill="#ff5d6c"/><path d="M323.9 275.0 L336.3 271.4 L348.7 266.9 L361.2 259.4 L373.6 254.3 L386.1 253.0 L398.5 254.2 L411.0 254.9 L423.4 254.1 L435.9 254.2 L448.3 254.0 L460.7 257.1 L473.2 253.8 L485.6 252.8 L498.1 256.5 L510.5 256.3 L523.0 255.3 L535.4 255.2 L547.9 256.0 L560.3 255.7 L572.7 255.5 L585.2 256.7 L597.6 259.6 L610.1 266.3 L622.5 276.9 L635.0 278.7 L647.4 280.0 L659.9 280.6 L672.3 283.6 L684.7 283.6 L697.2 281.7 L709.6 277.8 L722.1 275.8 L734.5 275.5 L747.0 270.4 L759.4 261.3 L771.9 256.8 L784.3 252.4 L796.7 251.3 L809.2 248.8 L821.6 248.1 L834.1 248.4 L846.5 248.8 L859.0 245.7 L871.4 247.1 L883.9 252.3 L896.3 254.1 L908.7 254.8 L921.2 254.8 L933.6 254.0 L946.1 251.8 L958.5 247.0 L971.0 247.4 L983.4 245.7 L995.9 248.2 L1008.3 254.9 L1020.7 259.6 L1033.2 262.4 L1045.6 264.4 L1058.1 266.7 L1070.5 268.2 L1083.0 267.2 L1095.4 267.9 L1107.9 274.2 L1120.3 274.7 L1132.7 275.5 L1145.2 275.3 L1157.6 278.8 L1170.1 279.5 L1182.5 279.6 L1195.0 279.5 L1207.4 278.9 " fill="none" stroke="#9b8cff" stroke-width="1"/><path d="M323.9 364.8 L336.3 362.3 L348.7 359.1 L361.2 359.2 L373.6 353.7 L386.1 349.7 L398.5 344.9 L411.0 342.2 L423.4 341.7 L435.9 341.2 L448.3 339.8 L460.7 333.8 L473.2 339.3 L485.6 343.6 L498.1 346.1 L510.5 348.2 L523.0 347.3 L535.4 346.4 L547.9 346.5 L560.3 345.7 L572.7 345.2 L585.2 345.5 L597.6 348.2 L610.1 347.7 L622.5 344.9 L635.0 349.8 L647.4 351.0 L659.9 351.2 L672.3 350.1 L684.7 350.1 L697.2 351.0 L709.6 352.1 L722.1 348.0 L734.5 345.6 L747.0 345.3 L759.4 347.3 L771.9 349.0 L784.3 349.6 L796.7 349.6 L809.2 349.6 L821.6 349.2 L834.1 349.9 L846.5 346.3 L859.0 343.6 L871.4 339.1 L883.9 327.9 L896.3 324.3 L908.7 320.4 L921.2 320.4 L933.6 322.0 L946.1 328.1 L958.5 339.5 L971.0 342.4 L983.4 347.3 L995.9 349.3 L1008.3 347.8 L1020.7 346.4 L1033.2 345.1 L1045.6 345.0 L1058.1 344.0 L1070.5 344.5 L1083.0 344.1 L1095.4 344.5 L1107.9 341.7 L1120.3 342.0 L1132.7 346.4 L1145.2 349.3 L1157.6 348.6 L1170.1 349.3 L1182.5 349.5 L1195.0 350.0 L1207.4 350.9 " fill="none" stroke="#9b8cff" stroke-width="1"/><path d="M323.9 300.6 L336.3 303.4 L348.7 298.9 L361.2 291.8 L373.6 283.1 L386.1 282.6 L398.5 281.4 L411.0 281.3 L423.4 281.7 L435.9 287.0 L448.3 292.2 L460.7 300.7 L473.2 309.9 L485.6 314.1 L498.1 317.0 L510.5 322.3 L523.0 319.4 L535.4 320.6 L547.9 317.8 L560.3 311.0 L572.7 306.7 L585.2 302.8 L597.6 303.4 L610.1 308.1 L622.5 311.9 L635.0 319.9 L647.4 323.8 L659.9 325.8 L672.3 326.7 L684.7 324.1 L697.2 318.9 L709.6 312.2 L722.1 303.1 L734.5 299.9 L747.0 293.9 L759.4 286.4 L771.9 279.7 L784.3 276.7 L796.7 276.4 L809.2 274.7 L821.6 272.8 L834.1 277.9 L846.5 284.2 L859.0 284.4 L871.4 289.2 L883.9 290.3 L896.3 295.2 L908.7 294.3 L921.2 293.9 L933.6 296.8 L946.1 305.6 L958.5 312.6 L971.0 316.8 L983.4 320.8 L995.9 325.6 L1008.3 325.6 L1020.7 322.6 L1033.2 316.1 L1045.6 309.2 L1058.1 304.6 L1070.5 301.0 L1083.0 297.6 L1095.4 298.1 L1107.9 298.4 L1120.3 302.5 L1132.7 308.1 L1145.2 314.9 L1157.6 315.2 L1170.1 319.0 L1182.5 320.6 L1195.0 325.0 L1207.4 331.2 " fill="none" stroke="#5ad8ff" stroke-width="1.4"/><path d="M323.9 324.5 L336.3 321.5 L348.7 317.9 L361.2 313.6 L373.6 309.0 L386.1 307.0 L398.5 306.6 L411.0 306.7 L423.4 305.3 L435.9 305.8 L448.3 305.2 L460.7 305.9 L473.2 309.0 L485.6 310.8 L498.1 312.1 L510.5 313.2 L523.0 311.5 L535.4 311.1 L547.9 309.8 L560.3 309.0 L572.7 308.4 L585.2 307.9 L597.6 309.6 L610.1 310.7 L622.5 312.4 L635.0 315.3 L647.4 316.1 L659.9 316.2 L672.3 315.5 L684.7 315.2 L697.2 313.1 L709.6 311.0 L722.1 309.1 L734.5 308.7 L747.0 306.0 L759.4 302.1 L771.9 299.2 L784.3 296.8 L796.7 295.7 L809.2 294.1 L821.6 293.9 L834.1 295.1 L846.5 295.4 L859.0 293.1 L871.4 293.7 L883.9 293.5 L896.3 294.7 L908.7 293.9 L921.2 294.9 L933.6 296.8 L946.1 299.2 L958.5 303.1 L971.0 304.4 L983.4 306.8 L995.9 307.8 L1008.3 307.7 L1020.7 307.0 L1033.2 305.1 L1045.6 304.8 L1058.1 303.5 L1070.5 304.1 L1083.0 303.4 L1095.4 303.9 L1107.9 303.7 L1120.3 304.2 L1132.7 307.0 L1145.2 309.3 L1157.6 309.6 L1170.1 310.5 L1182.5 311.3 L1195.0 312.9 L1207.4 316.0 " fill="none" stroke="#ffb454" stroke-width="1.4"/><path d="M323.9 279.1 L336.3 279.1 L348.7 279.1 L361.2 279.1 L373.6 279.0 L386.1 279.0 L398.5 279.1 L411.0 279.2 L423.4 279.2 L435.9 279.4 L448.3 279.4 L460.7 279.6 L473.2 279.7 L485.6 279.8 L498.1 279.9 L510.5 280.0 L523.0 280.1 L535.4 280.2 L547.9 280.2 L560.3 280.3 L572.7 280.4 L585.2 280.5 L597.6 280.6 L610.1 280.6 L622.5 280.8 L635.0 281.1 L647.4 281.1 L659.9 281.2 L672.3 281.3 L684.7 281.4 L697.2 281.4 L709.6 281.5 L722.1 281.5 L734.5 281.5 L747.0 281.5 L759.4 281.4 L771.9 281.3 L784.3 281.2 L796.7 281.2 L809.2 281.2 L821.6 281.2 L834.1 281.4 L846.5 281.4 L859.0 281.4 L871.4 281.4 L883.9 281.4 L896.3 281.5 L908.7 281.5 L921.2 281.6 L933.6 281.7 L946.1 281.9 L958.5 282.2 L971.0 282.2 L983.4 282.5 L995.9 282.6 L1008.3 282.6 L1020.7 282.7 L1033.2 282.7 L1045.6 282.7 L1058.1 282.8 L1070.5 282.8 L1083.0 282.9 L1095.4 283.0 L1107.9 283.1 L1120.3 283.1 L1132.7 283.3 L1145.2 283.5 L1157.6 283.6 L1170.1 283.6 L1182.5 283.7 L1195.0 283.9 L1207.4 283.8 " fill="none" stroke="#ff8fd0" stroke-width="1.4"/><line x1="320" y1="353.9568493236255" x2="1216" y2="353.9568493236255" stroke="#ffb454" stroke-dasharray="3 3"/><rect x="1216" y="345.9568493236255" width="64" height="16" fill="#ffb454"/><text x="1221" y="356.9568493236255" fill="#1a1206" font-family="monospace" font-size="11" font-weight="400" text-anchor="start">93.20</text><text x="328" y="76" fill="#6f8279" font-family="monospace" font-size="11" font-weight="400" text-anchor="start">BTC_EUR · 1m   MA7 EMA25 BOLL VWAP</text><text x="328" y="90" fill="#ff5d6c" font-family="monospace" font-size="11" font-weight="400" text-anchor="start">O 100.00  H 101.00  L 93.20  C 93.20</text><rect x="320" y="470" width="960" height="230" fill="#0a0e10"/><text x="328" y="486" fill="#5ad8ff" font-family="monospace" font-size="11" font-weight="600" text-anchor="start">RSI 14</text><line x1="320" y1="629.8" x2="1216" y2="629.8" stroke="rgba(120,150,138,.16)" stroke-dasharray="3 3"/><text x="1222" y="632.8" fill="#3f4f48" font-family="monospace" font-size="10" font-weight="400" text-anchor="start">30</text><line x1="320" y1="591" x2="1216" y2="591" stroke="rgba(120,150,138,.16)" stroke-dasharray="3 3"/><text x="1222" y="594" fill="#3f4f48" font-family="monospace" font-size="10" font-weight="400" text-anchor="start">50</text><line x1="320" y1="552.2" x2="1216" y2="552.2" stroke="rgba(120,150,138,.16)" stroke-dasharray="3 3"/><text x="1222" y="555.2" fill="#3f4f48" font-family="monospace" font-size="10" font-weight="400" text-anchor="start">70</text><path d="M323.9 583.4 L336.3 575.1 L348.7 571.3 L361.2 567.1 L373.6 564.6 L386.1 579.5 L398.5 588.1 L411.0 590.6 L423.4 582.6 L435.9 592.8 L448.3 587.0 L460.7 593.7 L473.2 606.3 L485.6 599.3 L498.1 597.9 L510.5 596.5 L523.0 582.1 L535.4 588.3 L547.9 583.5 L560.3 586.2 L572.7 587.2 L585.2 586.9 L597.6 600.9 L610.1 598.0 L622.5 601.7 L635.0 609.5 L647.4 596.3 L659.9 591.1 L672.3 586.7 L684.7 588.8 L697.2 577.4 L709.6 576.3 L722.1 576.8 L734.5 588.1 L747.0 573.6 L759.4 565.9 L771.9 571.9 L784.3 573.7 L796.7 583.3 L809.2 579.1 L821.6 588.9 L834.1 598.6 L846.5 592.3 L859.0 576.9 L871.4 594.1 L883.9 589.1 L896.3 597.3 L908.7 586.8 L921.2 596.1 L933.6 600.7 L946.1 604.1 L958.5 612.3 L971.0 597.5 L983.4 603.8 L995.9 596.0 L1008.3 590.8 L1020.7 587.1 L1033.2 580.8 L1045.6 589.7 L1058.1 584.0 L1070.5 594.1 L1083.0 587.5 L1095.4 593.7 L1107.9 589.5 L1120.3 594.1 L1132.7 606.2 L1145.2 603.6 L1157.6 592.8 L1170.1 596.4 L1182.5 596.3 L1195.0 600.8 L1207.4 610.2 " fill="none" stroke="#5ad8ff" stroke-width="1.4"/><text x="390" y="486" fill="#6f8279" font-family="monospace" font-size="11" font-weight="400" text-anchor="start">last 40.1</text></svg>